<?xml version="1.0" encoding="utf-8"?>
<!-- Generator: Adobe Illustrator 18.1.1, SVG Export Plug-In . SVG Version: 6.00 Build 0)  -->
<svg version="1.1" id="Layer_1" xmlns="http://www.w3.org/2000/svg" xmlns:xlink="http://www.w3.org/1999/xlink" x="0px" y="0px"
	 viewBox="0 0 213.8 34.6" enable-background="new 0 0 213.8 34.6" xml:space="preserve">
<g>
	<g>
		<g>
			<linearGradient id="SVGID_1_" gradientUnits="userSpaceOnUse" x1="162.0694" y1="19.2134" x2="162.0694" y2="1.320000e-02">
				<stop  offset="0" style="stop-color:#FFB359"/>
				<stop  offset="0.4949" style="stop-color:#FF8300"/>
				<stop  offset="0.6011" style="stop-color:#FF8A0D"/>
				<stop  offset="0.7973" style="stop-color:#FF9C2F"/>
				<stop  offset="1" style="stop-color:#FFB359"/>
			</linearGradient>
			<path fill="url(#SVGID_1_)" d="M151.3,0h5.9l4.9,14.7L167,0h5.9v19.2h-4l0.3-15l-4.9,15H160L155,4.1l0.4,15.1h-4.1V0z"/>
			<linearGradient id="SVGID_2_" gradientUnits="userSpaceOnUse" x1="184.5288" y1="19.2134" x2="184.5288" y2="1.320000e-02">
				<stop  offset="0" style="stop-color:#FFB359"/>
				<stop  offset="0.4949" style="stop-color:#FF8300"/>
				<stop  offset="0.6011" style="stop-color:#FF8A0D"/>
				<stop  offset="0.7973" style="stop-color:#FF9C2F"/>
				<stop  offset="1" style="stop-color:#FFB359"/>
			</linearGradient>
			<path fill="url(#SVGID_2_)" d="M182.4,0h4.3l8.2,19.2h-4.5l-1.8-4.6h-8.3l-1.7,4.6h-4.3L182.4,0z M184.3,3.8l-2.8,7.4h5.7
				L184.3,3.8z"/>
			<linearGradient id="SVGID_3_" gradientUnits="userSpaceOnUse" x1="204.8267" y1="19.2134" x2="204.8267" y2="1.320000e-02">
				<stop  offset="0" style="stop-color:#FFB359"/>
				<stop  offset="0.4949" style="stop-color:#FF8300"/>
				<stop  offset="0.6011" style="stop-color:#FF8A0D"/>
				<stop  offset="0.7973" style="stop-color:#FF9C2F"/>
				<stop  offset="1" style="stop-color:#FFB359"/>
			</linearGradient>
			<path fill="url(#SVGID_3_)" d="M202.6,9.6L196.1,0h4.7l4,6.1l3.9-6.1h4.7l-6.2,9.3l6.6,9.9H209l-4-6.7l-4.3,6.7h-4.8L202.6,9.6z"
				/>
		</g>
		<g>
			<linearGradient id="SVGID_4_" gradientUnits="userSpaceOnUse" x1="8.7839" y1="19.2002" x2="8.7839" y2="-5.184120e-11">
				<stop  offset="0" style="stop-color:#DBD9D6"/>
				<stop  offset="0.4949" style="stop-color:#77777A"/>
				<stop  offset="1" style="stop-color:#DBD9D6"/>
			</linearGradient>
			<path fill="url(#SVGID_4_)" d="M0,0h9.9c2.3,0,4,0.5,5.1,1.4s1.6,2.4,1.6,4.4c0,1.5-0.3,2.7-1,3.6c-0.7,0.9-1.6,1.5-2.9,1.8
				l4.8,8H13l-4.2-7.5H4v7.5H0V0z M9,3.4H4v4.8h5c1.3,0,2.3-0.2,2.8-0.5c0.5-0.4,0.8-1,0.8-1.9c0-0.9-0.3-1.5-0.8-1.9
				C11.3,3.6,10.4,3.4,9,3.4z"/>
			<linearGradient id="SVGID_5_" gradientUnits="userSpaceOnUse" x1="26.7239" y1="19.2002" x2="26.7239" y2="-3.528839e-10">
				<stop  offset="0" style="stop-color:#DBD9D6"/>
				<stop  offset="0.4949" style="stop-color:#77777A"/>
				<stop  offset="1" style="stop-color:#DBD9D6"/>
			</linearGradient>
			<path fill="url(#SVGID_5_)" d="M28,3.3c-1.5,0-2.6,0.4-3.3,1.1c-0.7,0.7-1.2,1.9-1.2,3.4l11.2,0v3.3H23.4c0,1.7,0.4,2.9,1.1,3.6
				c0.7,0.7,1.9,1.1,3.5,1.1h6.6v3.3h-6.8c-1.5,0-2.7-0.1-3.6-0.4c-0.9-0.3-1.7-0.7-2.4-1.3c-1-0.8-1.7-1.8-2.2-3.1
				c-0.5-1.3-0.7-2.8-0.7-4.5c0-3.4,0.7-5.9,2.2-7.5C22.5,0.8,24.8,0,27.9,0h6.7v3.3H28z"/>
			<linearGradient id="SVGID_6_" gradientUnits="userSpaceOnUse" x1="44.8076" y1="19.2002" x2="44.8076" y2="-3.537934e-10">
				<stop  offset="0" style="stop-color:#DBD9D6"/>
				<stop  offset="0.4949" style="stop-color:#77777A"/>
				<stop  offset="1" style="stop-color:#DBD9D6"/>
			</linearGradient>
			<path fill="url(#SVGID_6_)" d="M46.1,3.3c-1.7,0-2.9,0.5-3.6,1.6c-0.7,1.1-1.1,2.8-1.1,5.2c0,2.1,0.4,3.6,1.1,4.5
				c0.7,0.9,1.9,1.3,3.7,1.3h6.6v3.3h-6.8c-1.5,0-2.7-0.1-3.6-0.4c-0.9-0.3-1.7-0.7-2.4-1.3c-1-0.8-1.7-1.8-2.2-3.1
				c-0.5-1.3-0.7-2.8-0.7-4.5c0-3.4,0.7-5.9,2.2-7.5C40.6,0.8,42.9,0,46,0h6.7v3.3H46.1z"/>
			<linearGradient id="SVGID_7_" gradientUnits="userSpaceOnUse" x1="63.9888" y1="19.6055" x2="63.9888" y2="-0.3789">
				<stop  offset="0" style="stop-color:#DBD9D6"/>
				<stop  offset="0.4949" style="stop-color:#77777A"/>
				<stop  offset="1" style="stop-color:#DBD9D6"/>
			</linearGradient>
			<path fill="url(#SVGID_7_)" d="M54.4,9.4c0-3.3,0.8-5.8,2.4-7.4c1.6-1.6,4-2.4,7.2-2.4c3.3,0,5.7,0.8,7.2,2.4
				c1.6,1.6,2.3,4.1,2.3,7.5c0,3.4-0.8,5.9-2.3,7.5c-1.6,1.6-4,2.5-7.2,2.5c-3.3,0-5.7-0.8-7.3-2.5C55.2,15.5,54.4,12.9,54.4,9.4z
				 M64,2.9c-1.7,0-3,0.5-3.9,1.6c-0.9,1.1-1.3,2.7-1.3,4.9c0,2.4,0.4,4.1,1.2,5.2c0.8,1.1,2.1,1.7,3.9,1.7c1.8,0,3.1-0.5,3.9-1.6
				c0.8-1.1,1.3-2.8,1.3-5c0-2.3-0.4-4-1.3-5.1C67.1,3.5,65.8,2.9,64,2.9z"/>
			<linearGradient id="SVGID_8_" gradientUnits="userSpaceOnUse" x1="83.7701" y1="19.2002" x2="83.7701" y2="-4.611138e-10">
				<stop  offset="0" style="stop-color:#DBD9D6"/>
				<stop  offset="0.4949" style="stop-color:#77777A"/>
				<stop  offset="1" style="stop-color:#DBD9D6"/>
			</linearGradient>
			<path fill="url(#SVGID_8_)" d="M81.9,19.2L73.5,0h4.6l5.8,14.3L89.8,0h4.3l-8,19.2H81.9z"/>
			<linearGradient id="SVGID_9_" gradientUnits="userSpaceOnUse" x1="101.7486" y1="19.2002" x2="101.7486" y2="-3.537934e-10">
				<stop  offset="0" style="stop-color:#DBD9D6"/>
				<stop  offset="0.4949" style="stop-color:#77777A"/>
				<stop  offset="1" style="stop-color:#DBD9D6"/>
			</linearGradient>
			<path fill="url(#SVGID_9_)" d="M103,3.3c-1.5,0-2.6,0.4-3.3,1.1c-0.7,0.7-1.2,1.9-1.2,3.4l11.2,0v3.3H98.4c0,1.7,0.4,2.9,1.1,3.6
				c0.7,0.7,1.9,1.1,3.5,1.1h6.6v3.3h-6.8c-1.5,0-2.7-0.1-3.6-0.4c-0.9-0.3-1.7-0.7-2.4-1.3c-1-0.8-1.7-1.8-2.2-3.1
				c-0.5-1.3-0.7-2.8-0.7-4.5c0-3.4,0.7-5.9,2.2-7.5c1.5-1.6,3.8-2.4,6.8-2.4h6.7v3.3H103z"/>
			<linearGradient id="SVGID_10_" gradientUnits="userSpaceOnUse" x1="121.9483" y1="19.2002" x2="121.9483" y2="-5.184120e-11">
				<stop  offset="0" style="stop-color:#DBD9D6"/>
				<stop  offset="0.4949" style="stop-color:#77777A"/>
				<stop  offset="1" style="stop-color:#DBD9D6"/>
			</linearGradient>
			<path fill="url(#SVGID_10_)" d="M113.2,0h9.9c2.3,0,4,0.5,5.1,1.4c1.1,0.9,1.6,2.4,1.6,4.4c0,1.5-0.3,2.7-1,3.6
				c-0.7,0.9-1.6,1.5-2.9,1.8l4.8,8h-4.5l-4.2-7.5h-4.8v7.5h-4V0z M122.2,3.4h-5v4.8h5c1.3,0,2.3-0.2,2.8-0.5c0.5-0.4,0.8-1,0.8-1.9
				c0-0.9-0.3-1.5-0.8-1.9C124.5,3.6,123.5,3.4,122.2,3.4z"/>
			<linearGradient id="SVGID_11_" gradientUnits="userSpaceOnUse" x1="139.5357" y1="19.2002" x2="139.5357" y2="-4.210960e-10">
				<stop  offset="0" style="stop-color:#DBD9D6"/>
				<stop  offset="0.4949" style="stop-color:#77777A"/>
				<stop  offset="1" style="stop-color:#DBD9D6"/>
			</linearGradient>
			<path fill="url(#SVGID_11_)" d="M130.1,0h4.5l4.7,7.3l4.8-7.3h4.7l-7.4,10.7v8.5h-4v-8.5L130.1,0z"/>
		</g>
	</g>
	<g>
		<path fill="#FF8300" d="M48.1,34.5v-8h1.6l3.1,5.4h0v-5.4h1.4v8h-1.5l-3.3-5.7h0v5.7H48.1z"/>
		<path fill="#FF8300" d="M59.1,34.6c-2.2,0-3.3-1.5-3.3-4.1s1.2-4.1,3.3-4.1c2.2,0,3.3,1.5,3.3,4.1S61.3,34.6,59.1,34.6z
			 M59.1,27.7c-1.2,0-1.8,1-1.8,2.8c0,1.9,0.6,2.8,1.8,2.8c1.2,0,1.8-1,1.8-2.8C60.9,28.6,60.4,27.7,59.1,27.7z"/>
		<path fill="#FF8300" d="M67.5,34.5v-8h2.9c1.7,0,2.8,0.7,2.8,2.4c0,1.7-1.1,2.4-2.8,2.4H69v3.2H67.5z M69,30h1.2
			c1.2,0,1.5-0.4,1.5-1.1s-0.3-1.1-1.5-1.1H69V30z"/>
		<path fill="#FF8300" d="M75.8,26.5h1.9l2.3,8h-1.5L78,32.8h-2.5L75,34.5h-1.5L75.8,26.5z M75.8,31.5h1.9L76.8,28h0L75.8,31.5z"/>
		<path fill="#FF8300" d="M81.4,34.5v-8H83v8H81.4z"/>
		<path fill="#FF8300" d="M85.2,34.5v-8h1.6l3.1,5.4h0v-5.4h1.4v8h-1.5l-3.3-5.7h0v5.7H85.2z"/>
		<path fill="#FF8300" d="M93.5,34.5v-1.6H95v1.6H93.5z"/>
		<path fill="#FF8300" d="M100.8,34.5l1.8-8h1.5l-0.8,3.6h0l3.5-3.6h1.8l-2.9,3l1.5,5h-1.7l-1.1-3.8l-1.4,1.4l-0.5,2.4H100.8z"/>
		<path fill="#FF8300" d="M108.4,34.5l1.8-8h1.6l1.9,5.4h0l1.2-5.4h1.4l-1.8,8h-1.5l-2-5.7h0l-1.3,5.7H108.4z"/>
		<path fill="#FF8300" d="M122.2,33.5c-0.7,0.7-1.6,1.1-2.7,1.1c-0.9,0-1.5-0.2-2-0.7c-0.4-0.5-0.7-1.1-0.7-2c0-0.4,0.1-0.9,0.2-1.5
			c0.3-1.3,0.8-2.3,1.5-3c0.7-0.7,1.6-1.1,2.7-1.1c0.9,0,1.5,0.2,2,0.7c0.4,0.5,0.7,1.1,0.7,2c0,0.4-0.1,0.9-0.2,1.5
			C123.4,31.8,122.9,32.8,122.2,33.5z M122.4,29.2c0-1-0.5-1.5-1.4-1.5c-1.2,0-2,0.9-2.5,2.8c-0.1,0.5-0.2,0.9-0.2,1.3
			c0,1,0.5,1.5,1.4,1.5c1.2,0,2-0.9,2.4-2.8C122.3,30,122.4,29.6,122.4,29.2z"/>
		<path fill="#FF8300" d="M125.4,26.5h1.4l-0.2,5.4h0l2.3-5.4h1.6l-0.1,5.4h0l2.3-5.4h1.4l-3.4,8h-1.5l0.1-5.7h0l-2.4,5.7h-1.5
			L125.4,26.5z"/>
		<path fill="#FF8300" d="M141.7,28.8c-0.4-0.8-0.8-1.1-1.6-1.1c-1.1,0-1.7,1.1-1.7,2.9c0,1.7,0.6,2.7,1.7,2.7c1,0,1.6-0.7,1.7-1.6
			h-1.5v-1.3h3v4h-1.1v-0.8c-0.6,0.7-1.2,0.9-2.1,0.9c-2.2,0-3.2-1.7-3.2-4c0-2,0.8-4.2,3.3-4.2c1.6,0,2.5,0.9,2.9,2L141.7,28.8z"/>
		<path fill="#FF8300" d="M146.7,26.5h1.9l2.3,8h-1.5l-0.4-1.7h-2.5l-0.5,1.7h-1.5L146.7,26.5z M146.7,31.5h1.9l-0.9-3.5h0
			L146.7,31.5z"/>
		<path fill="#FF8300" d="M152.3,34.5v-8h1.5v8H152.3z"/>
		<path fill="#FF8300" d="M156.1,34.5v-8h1.6l3.1,5.4h0v-5.4h1.4v8h-1.5l-3.3-5.7h0v5.7H156.1z"/>
		<path fill="#FF8300" d="M164.4,34.5v-1.6h1.5v1.6H164.4z"/>
	</g>
</g>
</svg>
